<?xml version="1.0" encoding="UTF-8"?>
<svg id="Layer_2" data-name="Layer 2" xmlns="http://www.w3.org/2000/svg" width="36" height="49.89"
  viewBox="0 0 36 49.89">
  <g id="Layer_1-2" data-name="Layer 1">
    <path
      d="m35.93,30.28c-.25-2.81-1.13-5.44-2.6-7.83l-2.4-3.89.32,4.56c.12,1.73-.5,3.44-1.7,4.69-.48.5-1.03.91-1.64,1.22-2.01,1.03-4.42.87-6.28-.41-.05-.04-.11-.08-.16-.12,2.03-3.67,2.97-7.8,2.73-12-.01-.25-.03-.5-.05-.75v-.08c-.5-5.28-2.86-10.21-6.66-13.91l-1.82-1.77-.1,2.53c-.22,5.87-3.09,11.19-7.86,14.6l-.02.02c-.06.05-.13.09-.18.13C2.35,20.98-.5,27.2.07,33.51c.18,2.03.7,4,1.54,5.85,2.94,6.45,9.39,10.54,16.38,10.54.53,0,1.07-.02,1.61-.07,3.63-.33,7.03-1.72,9.83-4.03h0s.07-.06.07-.06c1.24-1.03,2.33-2.22,3.26-3.55l.28-.41c2.22-3.38,3.24-7.45,2.88-11.49Zm-16.52,17.29c-6.65.6-12.98-3.08-15.74-9.15-.73-1.61-1.19-3.34-1.35-5.12-.5-5.52,1.99-10.96,6.5-14.2.05-.04.09-.07.12-.09l.12-.08c4.6-3.31,7.61-8.21,8.5-13.72,2.44,3.04,3.95,6.75,4.32,10.67v.07c.03.22.04.43.05.67.23,4.08-.77,8.07-2.89,11.55-.63,1.03-1.35,2.01-2.16,2.91-.67.75-1.2,1.58-1.6,2.46-1.72,3.79-.87,8.42,2.39,11.33,0,0,0,0,0,0,.2.18.41.35.63.51.06.04.12.09.18.13.19.13.37.26.57.38.04.02.07.05.11.07.23.14.46.26.7.38.06.03.12.05.17.08.19.09.39.17.59.25.06.02.11.05.17.07.25.09.49.17.74.24.05.01.09.02.14.04.13.03.26.07.39.1-.87.23-1.76.39-2.67.47Zm11.61-6.84l-.07.09c-.82,1.18-1.79,2.25-2.89,3.16-.09.05-.17.1-.26.15-.08.05-.17.1-.25.14-.09.05-.19.09-.28.13-.09.04-.18.08-.27.12-.09.04-.18.07-.27.1-.1.04-.2.07-.3.1-.09.03-.17.05-.26.07-.11.03-.21.06-.32.08-.08.02-.16.03-.24.05-.11.02-.23.05-.34.06-.07.01-.15.02-.22.02-.12.01-.25.03-.37.04-.07,0-.13,0-.2,0-.13,0-.26.01-.39,0-.06,0-.12,0-.18,0-.14,0-.28,0-.41-.02-.05,0-.1-.01-.16-.02-.14-.02-.29-.03-.43-.06-.05,0-.09-.02-.14-.03-.15-.03-.29-.06-.44-.09-.04-.01-.08-.03-.13-.04-.15-.04-.3-.08-.44-.13-.04-.01-.07-.03-.11-.04-.15-.05-.3-.11-.44-.17-.04-.02-.08-.04-.12-.05-.14-.06-.28-.13-.42-.2-.05-.02-.09-.05-.14-.08-.13-.07-.26-.14-.38-.22-.07-.04-.14-.09-.21-.14-.1-.07-.2-.13-.29-.2-.16-.12-.32-.25-.47-.39h0c-3.09-2.75-3.36-7.51-.61-10.6.27-.3.53-.62.79-.94.07-.09.15-.19.22-.28.19-.25.38-.5.56-.76.04-.06.09-.11.13-.17.02.02.05.03.07.05,2.54,1.75,5.83,1.97,8.58.57.84-.43,1.59-.99,2.25-1.67.74-.77,1.32-1.66,1.71-2.63.41,1.2.68,2.45.8,3.74.33,3.62-.62,7.25-2.65,10.25Z"
      fill="#fff" />
  </g>
</svg>